#N canvas 827 239 527 327 12;
#X obj 461 257 dac~ 1 2 3 4 5 6 7 8;
#X obj 535 66 adc~ 1 2 3 4 5 6 7 8;
#X connect 1 0 0 6;
#X connect 1 0 0 7;
#X connect 1 1 0 6;
#X connect 1 1 0 7;
#X connect 1 2 0 6;
#X connect 1 2 0 7;
#X connect 1 3 0 6;
#X connect 1 3 0 7;
#X connect 1 4 0 6;
#X connect 1 4 0 7;
#X connect 1 5 0 6;
#X connect 1 5 0 7;
#X connect 1 6 0 6;
#X connect 1 6 0 7;
#X connect 1 7 0 7;
#X connect 1 7 0 6;
