#N canvas 827 239 527 327 12;
#X obj 767 536 headphones~;
#X obj 568 220 input~;
#X obj 1000 536 master~;
#X obj 276 187 config;
#X obj 276 261 recorder;
#X obj 276 220 directory_structure;
#X obj 1130 226 tamphall8r~ 2;
#X obj 637 355 *~;
#X obj 637 220 tgl 25 0 empty empty empty 17 7 0 10 #e4e4e4 #4d4d4d #373737 0 1;
#X msg 639 171 1;
#X obj 637 124 loadbang;
#X obj 1000 226 tamphall8r~ 1;
#X obj 749 226 notifications~;
#X obj 1400 225 scratcher~ 4;
#X obj 1275 226 scratcher~ 3;
#X obj 878 226 previewer~;
#X connect 1 0 7 0;
#X connect 6 0 2 2;
#X connect 6 0 2 3;
#X connect 7 0 0 0;
#X connect 8 0 7 1;
#X connect 9 0 8 0;
#X connect 10 0 9 0;
#X connect 11 0 2 0;
#X connect 11 0 2 1;
#X connect 12 0 0 0;
#X connect 13 0 2 5;
#X connect 13 0 2 4;
#X connect 14 0 2 4;
#X connect 14 0 2 5;
#X connect 15 0 0 0;
