#N canvas 827 239 527 327 12;
#X obj 1655 235 adc~;
#X obj 2353 1562 dac~;
#X obj 1655 279 s~ in_left;
#X obj 1655 312 s~ in_right;
#X obj 1852 235 recorder;
#X msg 2051 1163 1;
#X obj 2048 1264 s~ out_left;
#X obj 2130 1264 s~ out_right;
#X obj 2049 1194 player 1;
#X obj 110 80 directory_structure;
#X obj 2048 1134 loadbang;
#X obj 2011 1134 bng 25 250 50 0 empty empty empty 17 7 0 10 #e4e4e4 #4d4d4d #373737;
#X floatatom 2162 1134 5 1 16 0 - - - 12;
#X obj 2162 1163 int;
#X obj 2321 1246 s~ out_left;
#X obj 2403 1246 s~ out_right;
#X obj 2321 1116 loadbang;
#X obj 2284 1116 bng 25 250 50 0 empty empty empty 17 7 0 10 #e4e4e4 #4d4d4d #373737;
#X floatatom 2435 1116 5 1 16 0 - - - 12;
#X obj 2435 1145 int;
#X msg 2324 1145 16;
#X obj 2322 1176 player 2;
#X obj 2597 1149 s~ out_left;
#X obj 2702 1149 s~ out_right;
#X text 2604 1051 umlaufbahnen3000;
#X text 2011 1095 left turntable;
#X text 2275 1088 right turntable;
#X obj 2878 1093 scratcher 15;
#X obj 2881 1158 s~ out_left;
#X obj 2963 1158 s~ out_right;
#X msg 858 992 1;
#X msg 886 992 2;
#X msg 921 992 3;
#X msg 956 992 4;
#X msg 995 992 5;
#X msg 1023 992 6;
#X msg 1058 992 7;
#X msg 1093 992 8;
#X msg 1127 992 9;
#X msg 1155 992 10;
#X msg 1190 992 11;
#X msg 1225 992 12;
#X msg 1261 992 13;
#X msg 1289 992 14;
#X msg 1324 992 15;
#X msg 1359 992 16;
#X msg 279 992 1;
#X msg 307 992 2;
#X msg 342 992 3;
#X msg 377 992 4;
#X msg 416 992 5;
#X msg 444 992 6;
#X msg 479 992 7;
#X msg 514 992 8;
#X msg 548 992 9;
#X msg 576 992 10;
#X msg 611 992 11;
#X msg 646 992 12;
#X msg 682 992 13;
#X msg 710 992 14;
#X msg 745 992 15;
#X msg 780 992 16;
#X obj 279 968 cnv 15 16 15 empty empty empty 20 12 0 14 #00b74d #373737 0;
#X obj 307 968 cnv 15 16 15 empty empty empty 20 12 0 14 #b7000e #373737 0;
#X obj 342 968 cnv 15 16 15 empty empty empty 20 12 0 14 #a25f00 #373737 0;
#X obj 377 968 cnv 15 16 15 empty empty empty 20 12 0 14 #fcff00 #373737 0;
#X obj 416 968 cnv 15 16 15 empty empty empty 20 12 0 14 #fdfffb #373737 0;
#X obj 449 968 cnv 15 16 15 empty empty empty 20 12 0 14 #0059ff #373737 0;
#X text 856 933 sample bank;
#X text 281 933 sample;
#X obj 110 47 config;
#X obj 2597 1093 umlaufbahnen 16;
#X msg 2675 939 1;
#X obj 2669 884 loadbang;
#X obj 67 489 tgl 25 0 empty empty empty 17 7 0 10 #e4e4e4 #4d4d4d #373737 0 1;
#X msg 742 489 1;
#X msg 770 489 2;
#X msg 805 489 3;
#X msg 840 489 4;
#X msg 879 489 5;
#X msg 907 489 6;
#X msg 942 489 7;
#X msg 977 489 8;
#X msg 1011 489 9;
#X msg 1039 489 10;
#X msg 1074 489 11;
#X msg 1109 489 12;
#X msg 1145 489 13;
#X msg 1173 489 14;
#X msg 1208 489 15;
#X msg 1243 489 16;
#X msg 163 489 1;
#X msg 191 489 2;
#X msg 226 489 3;
#X msg 261 489 4;
#X msg 300 489 5;
#X msg 328 489 6;
#X msg 363 489 7;
#X msg 398 489 8;
#X msg 432 489 9;
#X msg 460 489 10;
#X msg 495 489 11;
#X msg 530 489 12;
#X msg 566 489 13;
#X msg 594 489 14;
#X msg 629 489 15;
#X msg 664 489 16;
#X obj 163 465 cnv 15 16 15 empty empty empty 20 12 0 14 #00b74d #373737 0;
#X obj 191 465 cnv 15 16 15 empty empty empty 20 12 0 14 #b7000e #373737 0;
#X obj 226 465 cnv 15 16 15 empty empty empty 20 12 0 14 #a25f00 #373737 0;
#X obj 261 465 cnv 15 16 15 empty empty empty 20 12 0 14 #fcff00 #373737 0;
#X obj 300 465 cnv 15 16 15 empty empty empty 20 12 0 14 #fdfffb #373737 0;
#X obj 333 465 cnv 15 16 15 empty empty empty 20 12 0 14 #0059ff #373737 0;
#X text 740 430 sample bank;
#X text 165 430 sample;
#X obj 658 683 recorder_core;
#X obj -316 80 headphones~;
#X obj -316 15 input~;
#X obj -177 88 master~;
#X obj 788 1236 player_core~;
#X obj -425 21 cycle~ 440;
#X connect 0 0 2 0;
#X connect 0 1 3 0;
#X connect 5 0 8 0;
#X connect 8 0 6 0;
#X connect 8 0 1 0;
#X connect 8 1 7 0;
#X connect 8 1 1 1;
#X connect 10 0 5 0;
#X connect 11 0 5 0;
#X connect 12 0 13 0;
#X connect 13 0 8 0;
#X connect 16 0 20 0;
#X connect 17 0 20 0;
#X connect 18 0 19 0;
#X connect 19 0 21 0;
#X connect 20 0 21 0;
#X connect 21 0 14 0;
#X connect 21 0 1 0;
#X connect 21 1 15 0;
#X connect 21 1 1 1;
#X connect 27 0 28 0;
#X connect 27 0 29 0;
#X connect 27 0 1 0;
#X connect 27 0 1 1;
#X connect 30 0 119 1;
#X connect 31 0 119 1;
#X connect 32 0 119 1;
#X connect 33 0 119 1;
#X connect 34 0 119 1;
#X connect 35 0 119 1;
#X connect 36 0 119 1;
#X connect 37 0 119 1;
#X connect 38 0 119 1;
#X connect 39 0 119 1;
#X connect 40 0 119 1;
#X connect 41 0 119 1;
#X connect 42 0 119 1;
#X connect 43 0 119 1;
#X connect 44 0 119 1;
#X connect 45 0 119 1;
#X connect 46 0 119 0;
#X connect 47 0 119 0;
#X connect 48 0 119 0;
#X connect 49 0 119 0;
#X connect 50 0 119 0;
#X connect 51 0 119 0;
#X connect 52 0 119 0;
#X connect 53 0 119 0;
#X connect 54 0 119 0;
#X connect 55 0 119 0;
#X connect 56 0 119 0;
#X connect 57 0 119 0;
#X connect 58 0 119 0;
#X connect 59 0 119 0;
#X connect 60 0 119 0;
#X connect 61 0 119 0;
#X connect 71 0 1 0;
#X connect 71 0 22 0;
#X connect 71 1 1 1;
#X connect 71 1 23 0;
#X connect 72 0 71 0;
#X connect 73 0 72 0;
#X connect 74 0 115 0;
#X connect 75 0 115 2;
#X connect 76 0 115 2;
#X connect 77 0 115 2;
#X connect 78 0 115 2;
#X connect 79 0 115 2;
#X connect 80 0 115 2;
#X connect 81 0 115 2;
#X connect 82 0 115 2;
#X connect 83 0 115 2;
#X connect 84 0 115 2;
#X connect 85 0 115 2;
#X connect 86 0 115 2;
#X connect 87 0 115 2;
#X connect 88 0 115 2;
#X connect 89 0 115 2;
#X connect 90 0 115 2;
#X connect 91 0 115 1;
#X connect 92 0 115 1;
#X connect 93 0 115 1;
#X connect 94 0 115 1;
#X connect 95 0 115 1;
#X connect 96 0 115 1;
#X connect 97 0 115 1;
#X connect 98 0 115 1;
#X connect 99 0 115 1;
#X connect 100 0 115 1;
#X connect 101 0 115 1;
#X connect 102 0 115 1;
#X connect 103 0 115 1;
#X connect 104 0 115 1;
#X connect 105 0 115 1;
#X connect 106 0 115 1;
#X connect 117 0 116 0;
#X connect 117 0 118 0;
#X connect 117 0 118 1;
#X connect 119 0 1 0;
#X connect 119 1 1 1;
#X connect 120 0 116 0;
