#N canvas 827 239 527 327 12;
#X obj 617 136 loadbang;
#X obj 857 213 bng 25 250 50 0 empty empty empty 17 7 0 10 #e4e4e4 #4d4d4d #373737;
#X msg 764 529 /home/thomas/Bela/samples/;
#X obj 725 326 s root_dir;
#X obj 764 469 r root_dir;
#X msg 725 269 set /Users/thomasgeissl/Bela/samples/;
#X msg 445 269 set /root/Bela/samples/;
#X obj 508 213 bng 25 250 50 0 empty empty empty 17 7 0 10 #e4e4e4 #4d4d4d #373737;
#X msg 158 215 hw 0 0 0;
#X obj 158 327 send bela_setmidi;
#X obj 1190 263 bng 25 250 50 0 empty empty empty 17 7 0 10 #e4e4e4 #4d4d4d #373737;
#X msg 1058 319 set /home/thomas/Bela/samples/;
#X connect 0 0 6 0;
#X connect 0 0 8 0;
#X connect 1 0 5 0;
#X connect 4 0 2 0;
#X connect 5 0 3 0;
#X connect 6 0 3 0;
#X connect 7 0 6 0;
#X connect 8 0 9 0;
#X connect 10 0 11 0;
#X connect 11 0 3 0;
