#N canvas 827 239 527 327 12;
#X obj 337 355 until;
#X obj 337 393 f;
#X obj 375 386 + 1;
#X obj 430 382 sel 0;
#X obj 375 412 mod 16;
#X obj 337 445 + 1;
#X obj 337 302 bng 25 250 50 0 empty empty empty 17 7 0 10 #e4e4e4 #4d4d4d #373737;
#X obj 337 486 t b f;
#X obj 328 632 pack s s;
#X text 195 63 create directory structure;
#X obj 351 521 makefilename %d;
#X text 327 1125 on error \, a bang is sent to the 2nd outlet;
#X obj 302 1127 bng 19 250 50 0 empty empty empty -35 10 0 10 #dfdfdf #000000 #000000;
#X obj 299 1186 print ERR:mkdir;
#X obj 81 113 r root_dir;
#X msg 63 554 /Users/thomasgeissl/Bela/samples/;
#X obj 182 233 t b b;
#X obj 215 591 symbol;
#X obj 473 744 list trim;
#X obj 270 1069 file mkdir;
#X obj 657 858 prepend set;
#X msg 473 716 \$2\$1;
#X msg 691 894 /Users/thomasgeissl/Bela/samples/16;
#X obj 416 852 t b a;
#X obj 481 980 symbol;
#X connect 0 0 1 0;
#X connect 1 0 2 0;
#X connect 1 0 5 0;
#X connect 2 0 4 0;
#X connect 3 0 0 1;
#X connect 4 0 1 1;
#X connect 4 0 3 0;
#X connect 5 0 7 0;
#X connect 6 0 0 0;
#X connect 7 0 15 0;
#X connect 7 1 10 0;
#X connect 8 0 21 0;
#X connect 10 0 8 0;
#X connect 12 0 13 0;
#X connect 14 0 15 0;
#X connect 14 0 16 0;
#X connect 15 0 17 0;
#X connect 16 0 6 0;
#X connect 16 1 15 0;
#X connect 17 0 8 1;
#X connect 18 0 23 0;
#X connect 19 1 12 0;
#X connect 20 0 22 0;
#X connect 21 0 18 0;
#X connect 22 0 24 0;
#X connect 23 0 22 0;
#X connect 23 1 20 0;
#X connect 24 0 19 0;
