#N canvas 827 239 527 327 12;
#X obj 124 253 notein;
#X text 177 305 velocity;
#X text 188 279 channel;
#X text 174 252 (omni);
#X text 159 327 note;
#X floatatom 126 349 4 0 127 0 - - - 0;
#X floatatom 143 304 4 0 127 0 - - - 0;
#X floatatom 163 279 0 1 64 0 - - - 0;
#X text 566 59 sample bank;
#X obj 520 60 inlet;
#X floatatom 526 113 5 0 0 0 - - - 12;
#X obj 343 1275 clone voice 24;
#X obj -164 160 loadbang;
#X obj -164 195 f \$1;
#X obj 343 1324 outlet~;
#X obj 417 1324 outlet~;
#X text 591 643 channel: turntable id \, get sample bank id for that turntable \, for now only use 1;
#X obj -199 611 spigot;
#X obj -170 354 -;
#X floatatom -164 382 5 0 0 0 - - - 12;
#X obj -164 571 tgl 25 0 empty empty empty 17 7 0 10 #e4e4e4 #4d4d4d #373737 0 1;
#X obj -164 409 == 0;
#X floatatom -164 228 5 0 0 0 - - - 12;
#X obj 929 113 s var_counter;
#X obj 929 50 loadbang;
#X msg 931 82 0;
#X obj 345 1068 f;
#X obj 399 1027 r var_counter;
#X obj 345 1027 bng 25 250 50 0 empty empty empty 17 7 0 10 #e4e4e4 #4d4d4d #373737;
#X floatatom 343 1123 5 0 0 0 - - - 12;
#X obj 134 1367 + 1;
#X obj 134 1284 f;
#X obj 193 1219 r var_counter;
#X obj 134 1219 bng 25 250 50 0 empty empty empty 17 7 0 10 #e4e4e4 #4d4d4d #373737;
#X obj 133 1579 s var_counter;
#X floatatom 133 1410 5 0 0 0 - - - 12;
#X obj 133 1504 mod 24;
#X obj 218 822 pack s f s;
#X obj 343 1219 pack f s;
#X text -164 123 SET ID;
#X text 1060 67 TODO: prefix var with ID;
#X floatatom 240 738 5 0 0 0 - - - 12;
#X obj 411 931 t s s;
#X obj 266 514 r root_dir;
#X obj 266 607 symbol;
#X obj 807 902 list trim;
#X msg -219 467 1;
#X obj -199 659 makefilename /%d.wav;
#X msg 266 562 /Users/thomasgeissl/Bela/samples/;
#X msg 217 870 \$3\$2\$1;
#X obj 10 739 symbol;
#X obj 85 777 t s b;
#X obj 900 980 print player;
#X obj 609 915 symbol;
#X obj -35 477 moses 17;
#X connect 0 0 5 0;
#X connect 0 1 6 0;
#X connect 0 2 7 0;
#X connect 5 0 54 0;
#X connect 7 0 18 0;
#X connect 7 0 41 0;
#X connect 9 0 10 0;
#X connect 11 0 14 0;
#X connect 11 1 15 0;
#X connect 12 0 13 0;
#X connect 13 0 22 0;
#X connect 17 0 47 0;
#X connect 18 0 19 0;
#X connect 19 0 21 0;
#X connect 20 0 17 1;
#X connect 21 0 20 0;
#X connect 22 0 18 1;
#X connect 24 0 25 0;
#X connect 25 0 23 0;
#X connect 26 0 29 0;
#X connect 27 0 26 1;
#X connect 28 0 26 0;
#X connect 29 0 33 0;
#X connect 29 0 38 0;
#X connect 30 0 35 0;
#X connect 31 0 30 0;
#X connect 32 0 31 1;
#X connect 33 0 31 0;
#X connect 35 0 36 0;
#X connect 36 0 34 0;
#X connect 37 0 49 0;
#X connect 38 0 11 0;
#X connect 41 0 37 1;
#X connect 42 0 28 0;
#X connect 42 1 38 1;
#X connect 43 0 48 0;
#X connect 44 0 37 2;
#X connect 45 0 52 0;
#X connect 45 0 53 0;
#X connect 46 0 20 0;
#X connect 47 0 50 0;
#X connect 48 0 44 0;
#X connect 49 0 45 0;
#X connect 50 0 51 0;
#X connect 51 0 37 0;
#X connect 51 1 48 0;
#X connect 53 0 42 0;
#X connect 54 0 17 0;
