#N canvas 827 239 527 327 12;
#X obj 1146 175 inlet;
#X floatatom 1152 228 5 0 0 0 - - - 12;
#X obj 808 1392 clone voice 24;
#X obj 808 1441 outlet~;
#X obj 882 1441 outlet~;
#X text 1217 758 channel: turntable id \, get sample bank id for that turntable \, for now only use 1;
#X obj 1555 228 s var_counter;
#X obj 1555 165 loadbang;
#X msg 1557 197 0;
#X obj 810 1185 f;
#X obj 864 1144 r var_counter;
#X obj 810 1144 bng 25 250 50 0 empty empty empty 17 7 0 10 #e4e4e4 #4d4d4d #373737;
#X floatatom 808 1240 5 0 0 0 - - - 12;
#X obj 599 1484 + 1;
#X obj 599 1401 f;
#X obj 658 1336 r var_counter;
#X obj 599 1336 bng 25 250 50 0 empty empty empty 17 7 0 10 #e4e4e4 #4d4d4d #373737;
#X obj 598 1696 s var_counter;
#X floatatom 598 1527 5 0 0 0 - - - 12;
#X obj 598 1621 mod 24;
#X obj 840 974 file join;
#X obj 840 899 pack s f s;
#X obj 1192 860 makefilename %d.wav;
#X obj 986 706 t b b f;
#X obj 808 1336 pack f s;
#X text 1686 182 TODO: prefix var with ID;
#X floatatom 1013 765 5 0 0 0 - - - 12;
#X text 1192 174 note;
#X obj 1265 204 inlet;
#X floatatom 1265 230 5 0 0 0 - - - 12;
#X obj 840 1035 t s s;
#X obj 617 704 r root_dir;
#X msg 633 763 /Users/thomasgeissl/Bela/samples/;
#X connect 0 0 1 0;
#X connect 1 0 23 0;
#X connect 2 0 3 0;
#X connect 2 1 4 0;
#X connect 7 0 8 0;
#X connect 8 0 6 0;
#X connect 9 0 12 0;
#X connect 10 0 9 1;
#X connect 11 0 9 0;
#X connect 12 0 16 0;
#X connect 12 0 24 0;
#X connect 13 0 18 0;
#X connect 14 0 13 0;
#X connect 15 0 14 1;
#X connect 16 0 14 0;
#X connect 18 0 19 0;
#X connect 19 0 17 0;
#X connect 20 0 30 0;
#X connect 21 0 20 0;
#X connect 22 0 21 2;
#X connect 23 0 32 0;
#X connect 23 2 22 0;
#X connect 24 0 2 0;
#X connect 26 0 21 1;
#X connect 28 0 29 0;
#X connect 29 0 26 0;
#X connect 30 0 11 0;
#X connect 30 1 24 1;
#X connect 31 0 32 0;
#X connect 32 0 21 0;
