#N canvas 827 239 527 327 12;
#X obj 690 137 ctlin;
#X text 734 188 (all controllers \, omni);
#X text 737 247 controller #;
#X text 749 215 channel/port;
#X floatatom 706 248 4 0 127 0 - - - 0;
#X floatatom 722 214 0 1 64 0 - - - 0;
#X floatatom 677 314 5 0 0 0 - - - 12;
#X obj 1005 798 r root_dir;
#X obj 936 932 symbol;
#X obj 936 798 bng 25 250 50 0 empty empty empty 17 7 0 10 #e4e4e4 #4d4d4d #373737;
#X msg 936 857 /home/thomas/Bela/samples/;
#X obj 687 602 makefilename /%d.wav;
#X obj 687 705 t s b;
#X obj 725 882 r \$0-samplebank;
#X floatatom 725 950 5 0 0 0 - - - 12;
#X obj 990 351 % 16;
#X obj 297 788 s \$0-samplebank;
#X obj 887 1162 list trim;
#X obj 887 1077 pack s f s;
#X msg 887 1134 \$3\$2\$1;
#X obj 1086 1687 clone voice 24;
#X obj 1086 1736 outlet~;
#X obj 1160 1736 outlet~;
#X obj 1088 1480 f;
#X obj 1088 1439 bng 25 250 50 0 empty empty empty 17 7 0 10 #e4e4e4 #4d4d4d #373737;
#X floatatom 1086 1535 5 0 0 0 - - - 12;
#X obj 877 1779 + 1;
#X obj 877 1696 f;
#X obj 877 1631 bng 25 250 50 0 empty empty empty 17 7 0 10 #e4e4e4 #4d4d4d #373737;
#X floatatom 876 1822 5 0 0 0 - - - 12;
#X obj 876 1916 mod 24;
#X obj 1086 1631 pack f s;
#X obj 1154 1343 t s s;
#X obj 1014 1362 symbol;
#X obj 876 1991 s \$0-var_counter;
#X obj 936 1631 r \$0-var_counter;
#X obj 1142 1439 r \$0-var_counter;
#X obj 682 455 spigot;
#X text 320 573 (all controllers \, omni);
#X text 335 600 channel/port;
#X floatatom 307 609 0 1 64 0 - - - 0;
#X obj 276 574 pgmin;
#X floatatom 278 672 5 0 0 0 - - - 12;
#X obj 288 727 - 1;
#X obj 765 352 != 119;
#X connect 0 0 6 0;
#X connect 0 1 4 0;
#X connect 0 2 5 0;
#X connect 4 0 44 0;
#X connect 5 0 15 0;
#X connect 6 0 37 0;
#X connect 7 0 10 0;
#X connect 8 0 18 2;
#X connect 9 0 10 0;
#X connect 10 0 8 0;
#X connect 11 0 12 0;
#X connect 12 0 18 0;
#X connect 12 1 9 0;
#X connect 13 0 14 0;
#X connect 14 0 18 1;
#X connect 17 0 33 0;
#X connect 18 0 19 0;
#X connect 19 0 17 0;
#X connect 20 0 21 0;
#X connect 20 1 22 0;
#X connect 23 0 25 0;
#X connect 24 0 23 0;
#X connect 25 0 28 0;
#X connect 25 0 31 0;
#X connect 26 0 29 0;
#X connect 27 0 26 0;
#X connect 28 0 27 0;
#X connect 29 0 30 0;
#X connect 30 0 34 0;
#X connect 31 0 20 0;
#X connect 32 0 24 0;
#X connect 32 1 31 1;
#X connect 33 0 32 0;
#X connect 35 0 27 1;
#X connect 36 0 23 1;
#X connect 37 0 11 0;
#X connect 41 0 42 0;
#X connect 41 1 40 0;
#X connect 42 0 43 0;
#X connect 43 0 16 0;
#X connect 44 0 37 1;
