#N canvas 827 239 527 327 12;
#X obj 988 552 moses 1;
#X obj 1074 871 bng 25 250 50 0 empty empty empty 17 7 0 10 #e4e4e4 #4d4d4d #373737;
#X obj 931 877 bng 25 250 50 0 empty empty empty 17 7 0 10 #e4e4e4 #4d4d4d #373737;
#X obj 952 1166 writesf~ 2;
#X msg 952 910 start;
#X msg 1042 910 stop;
#X obj 1372 511 makefilename %d.wav;
#X obj 1328 426 makefilename %d/;
#X obj 1553 778 pack s s s;
#X msg 1170 1114 open \$1;
#X obj 1176 815 t b s b;
#X obj 1192 644 spigot;
#X floatatom 1206 705 5 0 0 0 - - - 12;
#X obj 1188 592 tgl 25 0 empty empty empty 17 7 0 10 #e4e4e4 #4d4d4d #373737 0 1;
#X obj 350 43 inlet;
#X text 406 42 toggle;
#X obj 576 43 inlet;
#X obj 746 44 inlet;
#X text 788 46 samplebank;
#X text 632 43 controller;
#X obj 430 183 tgl 25 0 empty empty empty 17 7 0 10 #e4e4e4 #4d4d4d #373737 0 1;
#X floatatom 1222 218 5 0 0 0 - - - 12;
#X obj 858 1034 input~;
#X floatatom 777 131 5 0 0 0 - - - 12;
#X obj 1794 519 r root_dir;
#X msg 1702 676 /Users/thomasgeissl/Bela/samples/;
#X obj 1435 877 print;
#X msg 1553 811 \$1\$2\$3;
#X obj 1553 841 list trim;
#X obj 1365 826 symbol;
#X obj 1168 549 expr $f1 >= 0 && $f1 <= 16;
#X connect 0 0 1 0;
#X connect 0 0 5 0;
#X connect 0 1 11 0;
#X connect 4 0 3 0;
#X connect 5 0 3 0;
#X connect 6 0 8 2;
#X connect 7 0 8 1;
#X connect 8 0 27 0;
#X connect 9 0 3 0;
#X connect 10 0 4 0;
#X connect 10 0 2 0;
#X connect 10 1 9 0;
#X connect 10 2 5 0;
#X connect 11 0 12 0;
#X connect 12 0 25 0;
#X connect 13 0 11 1;
#X connect 14 0 20 0;
#X connect 16 0 6 0;
#X connect 16 0 23 0;
#X connect 16 0 30 0;
#X connect 17 0 21 0;
#X connect 20 0 0 0;
#X connect 21 0 7 0;
#X connect 22 0 3 0;
#X connect 22 0 3 1;
#X connect 24 0 25 0;
#X connect 25 0 8 0;
#X connect 27 0 28 0;
#X connect 28 0 29 0;
#X connect 29 0 10 0;
#X connect 29 0 26 0;
#X connect 30 0 13 0;
