#N canvas 827 239 527 327 12;
#X obj 134 123 ctlin;
#X text 168 180 value;
#X text 178 121 (all controllers \, omni);
#X text 289 181 controller #;
#X text 416 182 channel/port;
#X floatatom 137 180 4 0 127 0 - - - 0;
#X floatatom 260 181 4 0 127 0 - - - 0;
#X floatatom 389 182 0 1 64 0 - - - 0;
#X obj 212 494 recorder_core;
#X floatatom 364 494 5 0 0 0 - - - 12;
#X obj 159 276 > 0;
#X obj 171 325 tgl 25 0 empty empty empty 17 7 0 10 #e4e4e4 #4d4d4d #373737 0 1;
#X obj 359 325 % 16;
#X obj 409 360 expr if($f1 % 16 == 0 \, 16 \, $f1 % 16);
#X obj 195 369 spigot;
#X obj 279 276 moses 17;
#X msg 310 325 0;
#X msg 249 326 1;
#X connect 0 0 5 0;
#X connect 0 1 6 0;
#X connect 0 2 7 0;
#X connect 5 0 10 0;
#X connect 6 0 15 0;
#X connect 7 0 12 0;
#X connect 9 0 8 2;
#X connect 10 0 11 0;
#X connect 11 0 14 0;
#X connect 12 0 13 0;
#X connect 13 0 9 0;
#X connect 14 0 8 0;
#X connect 15 0 8 1;
#X connect 15 0 17 0;
#X connect 15 1 16 0;
#X connect 16 0 14 1;
#X connect 17 0 14 1;
