#N canvas 827 239 527 327 12;
#X obj 629 80 hsl 320 19 0 1 0 0 empty empty position\ in\ sample\ 0..1 -2 -10 0 12 #fcfcfc #000000 #000000 0 1;
#X obj 1076 460 +~ 0.5;
#X obj 1076 484 wrap~;
#X obj 1076 610 *~ 1024;
#X obj 1076 634 +~ 1;
#X obj 762 610 *~ 1024;
#X obj 762 634 +~ 1;
#X obj 626 524 samphold~;
#X obj 939 524 samphold~;
#X obj 1076 658 tabread4~ \$0-hanning;
#X obj 762 658 tabread4~ \$0-hanning;
#X obj 644 209 r \$0-sound-size;
#X obj 626 343 line~;
#X obj 626 232 *;
#X obj 626 559 +~;
#X obj 939 559 +~;
#X obj 939 583 tabread4~ \$0-sound;
#X obj 626 583 tabread4~ \$0-sound;
#X obj 626 677 *~;
#X obj 939 677 *~;
#X obj 626 700 +~;
#X obj 1019 129 hsl 162 19 1 100 1 1 empty empty frequency\ of\ switch -2 -10 0 12 #fcfcfc #000000 #000000 1643 1;
#X obj 1016 218 pow -1;
#X obj 1016 302 *;
#X obj 1074 178 phasor~;
#X obj 708 541 *~;
#X obj 1021 540 *~;
#X obj 1092 218 loadbang;
#X obj 1092 242 samplerate~;
#X obj 644 423 noise~;
#X obj 957 423 noise~;
#X text 693 422 slightly randomize position;
#X obj 626 501 clip~ 0 1;
#X obj 939 501 clip~ 0 1;
#X obj 626 472 +~;
#X obj 939 472 +~;
#X obj 999 337 r \$0-sound-size;
#X obj 999 388 -;
#X obj 1016 362 t b f;
#X floatatom 980 129 5 0 0 0 - - - 0;
#X obj 1092 266 t b f;
#X obj 554 677 line~;
#X obj 554 628 > 0;
#X obj 589 898 *~;
#X obj 626 255 -;
#X text 583 629 fade out at pos:0;
#X msg 626 279 \$1 100;
#X msg 554 652 \$1 100;
#X text 657 233 max_range = sound_samples - window_samples;
#X text 1112 633 + 1 to consider 4-point-interpolation of array;
#X text 1050 539 phasor over window size;
#X text 1120 484 offset of 0.5 between both windows;
#X obj 762 484 +~;
#X obj 644 447 *~ 4000;
#X obj 957 447 *~ 4000;
#X text 1042 303 sound duration in samples;
#X floatatom 693 152 5 0 0 0 - - - 0;
#X text 16 -90 channel;
#X text 2 -117 (omni);
#X floatatom -90 219 9 0 127 0 - - - 16;
#X floatatom -37 77 19 0 127 0 - - - 16;
#X floatatom -9 -90 0 1 64 0 - - - 0;
#X obj 435 -121 loadbang;
#X obj 435 -86 f \$1;
#X obj -27 575 spigot;
#X floatatom 129 168 5 0 0 0 - - - 12;
#X obj 129 337 tgl 25 0 empty empty empty 17 7 0 10 #e4e4e4 #4d4d4d #373737 0 1;
#X floatatom 435 -53 5 0 0 0 - - - 12;
#X text 435 -158 SET ID;
#X obj 299 1059 outlet~;
#X obj -48 -116 ctlin;
#X text -140 102 value;
#X text 31 31 controller;
#X obj -314 4 bendin;
#X obj -233 150 -;
#X floatatom -230 209 5 0 0 0 - - - 12;
#X obj 1032 -4 loadbang;
#X msg 1037 42 1.6;
#X obj -239 339 spigot;
#X obj -204 299 tgl 25 0 empty empty empty 17 7 0 10 #e4e4e4 #4d4d4d #373737 0 1;
#X obj -230 245 == 16;
#X floatatom -314 149 5 0 0 0 - - - 12;
#X floatatom -230 408 5 0 0 0 - - - 12;
#X obj -230 480 / 16383;
#X floatatom -230 531 5 0 0 0 - - - 12;
#X floatatom -211 1381 5 0 0 0 - - - 12;
#X obj 107 1616 r root_dir;
#X obj -200 1940 list trim;
#X obj 38 1750 symbol;
#X obj 38 1616 bng 25 250 50 0 empty empty empty 17 7 0 10 #e4e4e4 #4d4d4d #373737;
#X msg 38 1675 /home/thomas/Bela/samples/;
#X obj -200 1855 pack s f s;
#X obj -211 1420 makefilename /%d.wav;
#X msg -200 1912 \$3\$2\$1;
#X obj -211 1523 t s b;
#X obj -363 1673 r \$0-samplebank;
#X floatatom -270 1762 5 0 0 0 - - - 12;
#X obj -173 2419 soundfiler;
#X obj -173 2360 pack s \$0;
#N canvas 295 332 450 500 create_hanning 0;
#X msg 59 126 1027;
#X obj 59 150 until;
#X obj 90 174 + 1;
#X obj 59 259 / 1024;
#X obj 59 235 - 1;
#X obj 59 283 clip 0 1;
#X obj 59 343 cos;
#X obj 59 52 loadbang;
#X obj 166 234 atan;
#X floatatom 166 282 5 0 0 0 - - - 0;
#X msg 166 210 1;
#X obj 59 319 *;
#X obj 59 197 t f f;
#X obj 59 425 tabwrite \$0-hanning;
#X obj 166 258 * 8;
#X obj 59 81 t b b;
#X obj 59 379 - 1;
#X obj 59 402 * -0.5;
#X obj 59 174 f;
#X connect 0 0 1 0;
#X connect 1 0 18 0;
#X connect 2 0 18 1;
#X connect 3 0 5 0;
#X connect 4 0 3 0;
#X connect 5 0 11 0;
#X connect 6 0 16 0;
#X connect 7 0 15 0;
#X connect 8 0 14 0;
#X connect 9 0 11 1;
#X connect 10 0 8 0;
#X connect 11 0 6 0;
#X connect 12 0 4 0;
#X connect 12 1 13 1;
#X connect 14 0 9 0;
#X connect 15 0 0 0;
#X connect 15 1 10 0;
#X connect 16 0 17 0;
#X connect 17 0 13 0;
#X connect 18 0 2 0;
#X connect 18 0 12 0;
#X restore -73 2419 pd create_hanning;
#X obj -173 2527 array define \$0-hanning 1027;
#X obj -173 2454 s \$0-sound-size;
#X msg -173 2384 read -resize \$1 \$2-sound;
#X obj -173 2503 array define \$0-sound;
#X obj -489 2253 openpanel;
#X obj -489 2225 bng 15 250 50 0 empty empty empty 17 7 0 10 #fcfcfc #000000 #000000;
#X obj 458 63 s \$0-samplebank;
#X obj 129 209 == 0;
#X obj -30 623 s \$0-sample;
#X obj -211 1109 r \$0-sample;
#X obj -186 2148 symbol;
#X msg -141 2197 set \$1;
#X msg -130 2235 /home/thomas/Bela/samples/4/1.wav;
#X obj 458 7 % 127;
#X obj -9 277 == 127;
#X obj 4 333 tgl 25 0 empty empty empty 17 7 0 10 #e4e4e4 #4d4d4d #373737 0 1;
#X obj 82 404 +;
#X obj 100 437 == 2;
#X obj 109 475 tgl 25 0 empty empty empty 17 7 0 10 #e4e4e4 #4d4d4d #373737 0 1;
#X floatatom 291 75 5 0 0 0 - - - 12;
#X floatatom -230 54 5 0 0 0 - - - 12;
#X obj -153 271 loadbang;
#X msg -136 311 1;
#X obj 129 38 % 16;
#X msg 29 1320 0;
#X obj 28 1272 bng 25 250 50 0 empty empty empty 17 7 0 10 #e4e4e4 #4d4d4d #373737;
#X obj -225 2222 print tamplate;
#X obj -74 140 spigot;
#X obj 8 165 expr \$1 == 127 || \$1 <= 16;
#X obj 855 870 r \$0-muted;
#X obj 58 1372 s \$0-muted;
#X obj 444 976 *~ 1;
#X obj -65 1475 bng 25 250 50 0 empty empty empty 17 7 0 10 #e4e4e4 #4d4d4d #373737;
#X msg -36 1518 1;
#X obj -211 1243 moses 119;
#X obj -52 1212 print val:r;
#X obj -173 1317 print val_l;
#X floatatom 655 921 5 0 0 0 - - - 12;
#X obj -296 1207 print sample;
#X connect 0 0 13 0;
#X connect 0 0 42 0;
#X connect 0 0 56 0;
#X connect 1 0 2 0;
#X connect 2 0 3 0;
#X connect 2 0 8 1;
#X connect 2 0 26 0;
#X connect 3 0 4 0;
#X connect 4 0 9 0;
#X connect 5 0 6 0;
#X connect 6 0 10 0;
#X connect 7 0 14 0;
#X connect 8 0 15 0;
#X connect 9 0 19 1;
#X connect 10 0 18 1;
#X connect 11 0 13 1;
#X connect 12 0 34 0;
#X connect 12 0 35 0;
#X connect 13 0 44 0;
#X connect 14 0 17 0;
#X connect 15 0 16 0;
#X connect 16 0 19 0;
#X connect 17 0 18 0;
#X connect 18 0 20 0;
#X connect 19 0 20 1;
#X connect 20 0 43 1;
#X connect 21 0 22 0;
#X connect 21 0 24 0;
#X connect 21 0 39 0;
#X connect 22 0 23 0;
#X connect 23 0 25 1;
#X connect 23 0 26 1;
#X connect 23 0 38 0;
#X connect 23 0 44 1;
#X connect 24 0 1 0;
#X connect 24 0 52 0;
#X connect 25 0 14 1;
#X connect 26 0 15 1;
#X connect 27 0 28 0;
#X connect 28 0 40 0;
#X connect 29 0 53 0;
#X connect 30 0 54 0;
#X connect 32 0 7 0;
#X connect 33 0 8 0;
#X connect 34 0 32 0;
#X connect 35 0 33 0;
#X connect 36 0 37 0;
#X connect 37 0 32 2;
#X connect 37 0 33 2;
#X connect 38 0 37 0;
#X connect 38 1 37 1;
#X connect 40 0 23 0;
#X connect 40 1 23 1;
#X connect 41 0 43 0;
#X connect 42 0 47 0;
#X connect 43 0 131 0;
#X connect 44 0 46 0;
#X connect 46 0 12 0;
#X connect 47 0 41 0;
#X connect 52 0 5 0;
#X connect 52 0 7 1;
#X connect 52 0 25 0;
#X connect 53 0 34 1;
#X connect 54 0 35 1;
#X connect 59 0 64 0;
#X connect 60 0 114 0;
#X connect 60 0 128 0;
#X connect 61 0 123 0;
#X connect 62 0 63 0;
#X connect 63 0 67 0;
#X connect 64 0 108 0;
#X connect 65 0 107 0;
#X connect 66 0 116 1;
#X connect 67 0 113 0;
#X connect 67 0 119 0;
#X connect 70 0 127 0;
#X connect 70 1 60 0;
#X connect 70 2 61 0;
#X connect 73 0 81 0;
#X connect 73 1 74 0;
#X connect 73 1 120 0;
#X connect 74 0 75 0;
#X connect 75 0 80 0;
#X connect 76 0 77 0;
#X connect 77 0 21 0;
#X connect 78 0 82 0;
#X connect 79 0 78 1;
#X connect 81 0 78 0;
#X connect 82 0 83 0;
#X connect 83 0 84 0;
#X connect 84 0 0 0;
#X connect 85 0 92 0;
#X connect 85 0 132 0;
#X connect 86 0 90 0;
#X connect 87 0 110 0;
#X connect 88 0 91 2;
#X connect 89 0 90 0;
#X connect 90 0 88 0;
#X connect 91 0 93 0;
#X connect 92 0 94 0;
#X connect 93 0 87 0;
#X connect 94 0 91 0;
#X connect 94 1 89 0;
#X connect 95 0 96 0;
#X connect 96 0 91 1;
#X connect 97 0 101 0;
#X connect 98 0 102 0;
#X connect 102 0 97 0;
#X connect 104 0 98 0;
#X connect 105 0 104 0;
#X connect 107 0 66 0;
#X connect 109 0 134 0;
#X connect 109 0 138 0;
#X connect 110 0 98 0;
#X connect 110 0 111 0;
#X connect 110 0 126 0;
#X connect 111 0 112 0;
#X connect 113 0 74 1;
#X connect 113 0 106 0;
#X connect 114 0 115 0;
#X connect 115 0 116 0;
#X connect 116 0 117 0;
#X connect 117 0 118 0;
#X connect 118 0 64 1;
#X connect 119 0 107 1;
#X connect 121 0 122 0;
#X connect 122 0 79 0;
#X connect 123 0 65 0;
#X connect 124 0 130 0;
#X connect 125 0 124 0;
#X connect 127 0 59 0;
#X connect 128 0 127 1;
#X connect 129 0 137 0;
#X connect 131 0 69 0;
#X connect 132 0 133 0;
#X connect 133 0 130 0;
#X connect 134 0 85 0;
#X connect 134 0 136 0;
#X connect 134 1 125 0;
#X connect 134 1 135 0;
#X connect 137 0 131 1;
