#N canvas 827 239 527 327 12;
#X obj 1050 205 notein;
#X text 1103 257 velocity;
#X text 1114 231 channel;
#X text 1100 204 (omni);
#X text 1008 299 note;
#X floatatom 1052 301 4 0 127 0 - - - 0;
#X floatatom 1069 256 14 0 127 0 - - - 16;
#X floatatom 1089 231 0 1 64 0 - - - 0;
#X obj 805 265 loadbang;
#X obj 805 300 f \$1;
#X obj 1114 669 spigot;
#X obj 1135 411 -;
#X floatatom 1141 439 5 0 0 0 - - - 12;
#X obj 1140 513 tgl 25 0 empty empty empty 17 7 0 10 #e4e4e4 #4d4d4d #373737 0 1;
#X obj 1141 485 == 0;
#X floatatom 805 333 5 0 0 0 - - - 12;
#X text 805 228 SET ID;
#X obj 514 521 ctlin;
#X text 491 814 value;
#X text 558 520 (all controllers \, omni);
#X text 561 579 controller #;
#X text 573 547 channel/port;
#X floatatom 540 842 4 0 127 0 - - - 0;
#X floatatom 530 580 4 0 127 0 - - - 0;
#X floatatom 546 546 0 1 64 0 - - - 0;
#X obj 624 822 s \$0_controller;
#X obj 542 936 t b f;
#X obj 791 539 -;
#X floatatom 797 567 5 0 0 0 - - - 12;
#X obj 796 641 tgl 25 0 empty empty empty 17 7 0 10 #e4e4e4 #4d4d4d #373737 0 1;
#X obj 797 613 == 0;
#X obj 542 788 spigot;
#X obj 624 788 spigot;
#X floatatom 1100 954 5 0 0 0 - - - 12;
#X obj 1418 1189 r root_dir;
#X obj 1111 1513 list trim;
#X obj 1349 1323 symbol;
#X obj 1349 1189 bng 25 250 50 0 empty empty empty 17 7 0 10 #e4e4e4 #4d4d4d #373737;
#X msg 1349 1248 /home/thomas/Bela/samples/;
#X obj 1111 1428 pack s f s;
#X obj 1100 993 makefilename /%d.wav;
#X msg 1111 1485 \$3\$2\$1;
#X obj 1309 1975 clone voice 24;
#X obj 1309 2024 outlet~;
#X obj 1383 2024 outlet~;
#X obj 1311 1768 f;
#X obj 1311 1727 bng 25 250 50 0 empty empty empty 17 7 0 10 #e4e4e4 #4d4d4d #373737;
#X floatatom 1309 1823 5 0 0 0 - - - 12;
#X obj 1100 2067 + 1;
#X obj 1100 1984 f;
#X obj 1100 1919 bng 25 250 50 0 empty empty empty 17 7 0 10 #e4e4e4 #4d4d4d #373737;
#X floatatom 1099 2110 5 0 0 0 - - - 12;
#X obj 1099 2204 mod 24;
#X obj 1309 1919 pack f s;
#X obj 1377 1631 t s s;
#X obj 253 70 loadbang;
#X msg 255 102 0;
#X obj 1237 1650 symbol;
#X obj 1100 1096 t s b;
#X text -129 532 (all controllers \, omni);
#X text -114 559 channel/port;
#X floatatom -142 568 0 1 64 0 - - - 0;
#X obj 33 529 -;
#X floatatom 39 557 5 0 0 0 - - - 12;
#X obj 38 707 tgl 25 0 empty empty empty 17 7 0 10 #e4e4e4 #4d4d4d #373737 0 1;
#X obj -173 533 pgmin;
#X floatatom -171 631 5 0 0 0 - - - 12;
#X obj -163 765 spigot;
#X obj -163 838 send \$0-samplebank;
#X obj -1027 1625 loadbang;
#X msg -1025 1809 1;
#X obj -930 1625 bng 25 250 50 0 empty empty empty 17 7 0 10 #e4e4e4 #4d4d4d #373737;
#X msg -96 1864 0;
#X msg 271 1672 set \$1;
#X msg 2 1856 0;
#X msg 75 1856 0;
#X msg 122 1856 0;
#X msg 162 1856 0;
#X msg 212 1856 0;
#X msg 259 1856 0;
#X msg 299 1856 0;
#X obj -106 1368 r \$0_controller;
#X floatatom -106 1407 5 0 0 0 - - - 12;
#X msg -85 1625 123;
#X msg -105 1473 set \$1;
#X text -109 1339 routing to set sample used for slot;
#X obj 1138 1273 r \$0-samplebank;
#X floatatom 1138 1341 5 0 0 0 - - - 12;
#X obj 797 587 % 16;
#X obj -113 1672 sel 65 66 67 68 69 70 71 72;
#X msg -82 2228 set \$1;
#X msg 12 2228 set \$1;
#X msg 168 2228 set \$1;
#X msg 84 2228 set \$1;
#X msg 299 2228 set \$1;
#X msg 232 2228 set \$1;
#X msg 363 2228 set \$1;
#X msg 426 2228 set \$1;
#X msg 27 2341 2;
#X msg 87 2341 3;
#X msg 172 2341 4;
#X msg 238 2342 5;
#X msg 304 2336 6;
#X msg 373 2334 7;
#X msg 437 2330 8;
#X msg -83 2327 1;
#X msg -982 1809 2;
#X msg -930 1809 3;
#X msg -869 1809 4;
#X msg -794 1809 5;
#X msg -730 1809 6;
#X msg -671 1809 7;
#X msg -599 1809 8;
#X text 1232 582 only trigger when velocity > 0 \, basically ignoring note off;
#X obj 1214 500 tgl 25 0 empty empty empty 17 7 0 10 #e4e4e4 #4d4d4d #373737 0 1;
#X obj 1261 411 > 99;
#X obj 1148 584 +;
#X obj 1174 613 == 2;
#X obj 1174 652 tgl 25 0 empty empty empty 17 7 0 10 #e4e4e4 #4d4d4d #373737 0 1;
#X obj -1139 2060 sel 1 2 3 4 5 6 7 8;
#X obj 1099 724 s \$0-note;
#X obj -1144 1997 r \$0-note;
#X obj 1099 871 r \$0-mapped_note;
#X obj 117 2677 s \$0-mapped_note;
#X obj 1222 291 % 16;
#X obj 1099 2279 s \$0-var_counter;
#X obj 1159 1919 r \$0-var_counter;
#X obj 1365 1727 r \$0-var_counter;
#X obj 253 133 s \$0-var_counter;
#X obj 39 679 == 0;
#X obj -163 800 - 1;
#X obj 298 690 spigot;
#X obj 406 603 t f f;
#X obj 435 670 <= 127;
#X connect 0 0 5 0;
#X connect 0 1 6 0;
#X connect 0 2 7 0;
#X connect 5 0 10 0;
#X connect 6 0 115 0;
#X connect 7 0 124 0;
#X connect 8 0 9 0;
#X connect 9 0 15 0;
#X connect 9 0 62 1;
#X connect 10 0 120 0;
#X connect 11 0 12 0;
#X connect 12 0 14 0;
#X connect 13 0 116 1;
#X connect 14 0 13 0;
#X connect 15 0 11 1;
#X connect 15 0 27 1;
#X connect 17 0 132 0;
#X connect 17 1 23 0;
#X connect 17 2 24 0;
#X connect 22 0 26 0;
#X connect 23 0 32 0;
#X connect 24 0 27 0;
#X connect 26 0 83 0;
#X connect 26 1 73 0;
#X connect 27 0 28 0;
#X connect 28 0 88 0;
#X connect 29 0 31 1;
#X connect 29 0 32 1;
#X connect 30 0 29 0;
#X connect 31 0 22 0;
#X connect 32 0 25 0;
#X connect 33 0 40 0;
#X connect 34 0 38 0;
#X connect 35 0 57 0;
#X connect 36 0 39 2;
#X connect 37 0 38 0;
#X connect 38 0 36 0;
#X connect 39 0 41 0;
#X connect 40 0 58 0;
#X connect 41 0 35 0;
#X connect 42 0 43 0;
#X connect 42 1 44 0;
#X connect 45 0 47 0;
#X connect 46 0 45 0;
#X connect 47 0 50 0;
#X connect 47 0 53 0;
#X connect 48 0 51 0;
#X connect 49 0 48 0;
#X connect 50 0 49 0;
#X connect 51 0 52 0;
#X connect 52 0 125 0;
#X connect 53 0 42 0;
#X connect 54 0 46 0;
#X connect 54 1 53 1;
#X connect 55 0 56 0;
#X connect 56 0 128 0;
#X connect 57 0 54 0;
#X connect 58 0 39 0;
#X connect 58 1 37 0;
#X connect 61 0 62 0;
#X connect 62 0 63 0;
#X connect 63 0 129 0;
#X connect 64 0 67 1;
#X connect 65 0 66 0;
#X connect 65 1 61 0;
#X connect 66 0 67 0;
#X connect 67 0 130 0;
#X connect 69 0 70 0;
#X connect 69 0 106 0;
#X connect 69 0 107 0;
#X connect 69 0 108 0;
#X connect 69 0 109 0;
#X connect 69 0 110 0;
#X connect 69 0 111 0;
#X connect 69 0 112 0;
#X connect 70 0 90 0;
#X connect 71 0 70 0;
#X connect 71 0 112 0;
#X connect 71 0 111 0;
#X connect 71 0 110 0;
#X connect 71 0 109 0;
#X connect 71 0 108 0;
#X connect 71 0 107 0;
#X connect 71 0 106 0;
#X connect 72 0 90 0;
#X connect 73 0 72 0;
#X connect 73 0 74 0;
#X connect 73 0 75 0;
#X connect 73 0 76 0;
#X connect 73 0 77 0;
#X connect 73 0 78 0;
#X connect 73 0 79 0;
#X connect 73 0 80 0;
#X connect 74 0 91 0;
#X connect 75 0 93 0;
#X connect 76 0 92 0;
#X connect 77 0 95 0;
#X connect 78 0 94 0;
#X connect 79 0 96 0;
#X connect 80 0 97 0;
#X connect 81 0 82 0;
#X connect 82 0 84 0;
#X connect 83 0 89 0;
#X connect 84 0 83 0;
#X connect 86 0 87 0;
#X connect 87 0 39 1;
#X connect 88 0 30 0;
#X connect 89 0 72 0;
#X connect 89 1 74 0;
#X connect 89 2 75 0;
#X connect 89 3 76 0;
#X connect 89 4 77 0;
#X connect 89 5 78 0;
#X connect 89 6 79 0;
#X connect 89 7 80 0;
#X connect 90 0 105 0;
#X connect 91 0 98 0;
#X connect 92 0 100 0;
#X connect 93 0 99 0;
#X connect 94 0 102 0;
#X connect 95 0 101 0;
#X connect 96 0 103 0;
#X connect 97 0 104 0;
#X connect 98 0 123 0;
#X connect 99 0 123 0;
#X connect 100 0 123 0;
#X connect 101 0 123 0;
#X connect 102 0 123 0;
#X connect 103 0 123 0;
#X connect 104 0 123 0;
#X connect 105 0 123 0;
#X connect 106 0 91 0;
#X connect 107 0 93 0;
#X connect 108 0 92 0;
#X connect 109 0 95 0;
#X connect 110 0 94 0;
#X connect 111 0 96 0;
#X connect 112 0 97 0;
#X connect 114 0 116 0;
#X connect 115 0 114 0;
#X connect 116 0 117 0;
#X connect 117 0 118 0;
#X connect 118 0 10 1;
#X connect 119 0 105 0;
#X connect 119 1 98 0;
#X connect 119 2 99 0;
#X connect 119 3 100 0;
#X connect 119 4 101 0;
#X connect 119 5 102 0;
#X connect 119 6 103 0;
#X connect 119 7 104 0;
#X connect 121 0 119 0;
#X connect 122 0 33 0;
#X connect 124 0 11 0;
#X connect 126 0 49 1;
#X connect 127 0 45 1;
#X connect 129 0 64 0;
#X connect 130 0 68 0;
#X connect 131 0 31 0;
#X connect 132 0 131 0;
#X connect 132 1 133 0;
#X connect 133 0 131 1;
