#N canvas 827 239 527 327 12;
#X obj 680 465 notein;
#X text 733 517 velocity;
#X text 744 491 channel;
#X text 730 464 (omni);
#X text 715 539 note;
#X floatatom 682 561 4 0 127 0 - - - 0;
#X floatatom 699 516 4 0 127 0 - - - 0;
#X floatatom 719 491 0 1 64 0 - - - 0;
#X obj 1214 2112 clone voice 24;
#X obj 588 224 loadbang;
#X obj 588 259 f \$1;
#X obj 1214 2161 outlet~;
#X obj 1288 2161 outlet~;
#X text 1462 1480 channel: turntable id \, get sample bank id for that turntable \, for now only use 1;
#X obj 787 711 spigot;
#X obj 817 569 -;
#X floatatom 823 597 5 0 0 0 - - - 12;
#X obj 822 671 tgl 25 0 empty empty empty 17 7 0 10 #e4e4e4 #4d4d4d #373737 0 1;
#X obj 823 643 == 0;
#X floatatom 588 292 5 0 0 0 - - - 12;
#X obj 893 106 s var_counter;
#X obj 893 43 loadbang;
#X msg 895 75 0;
#X obj 1216 1905 f;
#X obj 1270 1864 r var_counter;
#X obj 1216 1864 bng 25 250 50 0 empty empty empty 17 7 0 10 #e4e4e4 #4d4d4d #373737;
#X floatatom 1214 1960 5 0 0 0 - - - 12;
#X obj 1536 2139 + 1;
#X obj 1536 2100 f;
#X obj 1595 2035 r var_counter;
#X obj 1536 2035 bng 25 250 50 0 empty empty empty 17 7 0 10 #e4e4e4 #4d4d4d #373737;
#X obj 1535 2263 s var_counter;
#X floatatom 1535 2182 5 0 0 0 - - - 12;
#X obj 1535 2223 mod 24;
#X obj 1246 1694 file join;
#X obj 1085 1621 pack s f s;
#X obj 1437 1582 makefilename %d.wav;
#X obj 1231 1428 t b b f;
#X obj 1214 2056 pack f s;
#X text 588 187 SET ID;
#X text 1024 60 TODO: prefix var with ID;
#X floatatom 1085 1391 5 0 0 0 - - - 12;
#X obj 1282 1768 t s s;
#X obj 925 1481 r root_dir;
#X obj 993 1588 symbol;
#X floatatom 90 1596 5 0 0 0 - - - 12;
#X text 90 1553 sample 0;
#X floatatom 174 1596 5 0 0 0 - - - 12;
#X floatatom 254 1596 5 0 0 0 - - - 12;
#X floatatom 334 1596 5 0 0 0 - - - 12;
#X text 174 1553 sample 1;
#X text 254 1553 sample 2;
#X text 334 1553 sample 3;
#X floatatom 444 1596 5 0 0 0 - - - 12;
#X floatatom 528 1596 5 0 0 0 - - - 12;
#X floatatom 608 1596 5 0 0 0 - - - 12;
#X floatatom 688 1596 5 0 0 0 - - - 12;
#X text 444 1553 sample 4;
#X text 528 1553 sample 5;
#X text 608 1553 sample 6;
#X text 688 1553 sample 7;
#X obj -207 1263 loadbang;
#X msg -205 1304 1;
#X obj 90 1503 sel 60 61 62 63 64 65 66 67;
#X obj -110 1263 bng 25 250 50 0 empty empty empty 17 7 0 10 #e4e4e4 #4d4d4d #373737;
#X floatatom 90 1880 5 0 0 0 - - - 12;
#X obj 368 502 ctlin;
#X text 274 773 value;
#X text 412 501 (all controllers \, omni);
#X text 415 560 controller #;
#X text 427 528 channel/port;
#X floatatom 327 801 4 0 127 0 - - - 0;
#X floatatom 384 561 4 0 127 0 - - - 0;
#X floatatom 400 527 0 1 64 0 - - - 0;
#X obj 47 1045 sel 1 2 3 4 5 6 7 8;
#X obj 407 783 s \$0_controller;
#X obj 32 695 r \$0_controller;
#X floatatom 32 734 5 0 0 0 - - - 12;
#X obj 329 896 t b f;
#X msg 53 952 1;
#X msg 33 800 set \$1;
#X msg 64 1237 11;
#X msg 123 1108 set \$1;
#X msg 162 1229 11;
#X msg 235 1229 11;
#X msg 282 1229 11;
#X msg 322 1229 11;
#X msg 372 1229 11;
#X msg 419 1229 11;
#X msg 459 1229 11;
#X obj 574 498 -;
#X floatatom 580 526 5 0 0 0 - - - 12;
#X obj 579 600 tgl 25 0 empty empty empty 17 7 0 10 #e4e4e4 #4d4d4d #373737 0 1;
#X obj 580 572 == 0;
#X obj 325 747 spigot;
#X obj 407 747 spigot;
#X msg 993 1556 /Users/thomasgeissl/Bela/samples/;
#X text 29 666 routing to set sample used for slot;
#X obj 1541 1679 print;
#X text -188 426 (all controllers \, omni);
#X text -173 453 channel/port;
#X floatatom -201 462 0 1 64 0 - - - 0;
#X obj -26 423 -;
#X floatatom -20 451 5 0 0 0 - - - 12;
#X obj -21 525 tgl 25 0 empty empty empty 17 7 0 10 #e4e4e4 #4d4d4d #373737 0 1;
#X obj -20 497 == 0;
#X obj -232 427 pgmin;
#X floatatom -230 525 5 0 0 0 - - - 12;
#X obj 727 195 bng 25 250 50 0 empty empty empty 17 7 0 10 #e4e4e4 #4d4d4d #373737;
#X obj -222 659 spigot;
#X obj -222 732 send \$0-samplebank;
#X obj 1085 1315 r \$0-samplebank;
#X obj 1195 1367 print samplebank;
#X obj -233 807 print sendsamplebank;
#X connect 0 0 5 0;
#X connect 0 1 6 0;
#X connect 0 2 7 0;
#X connect 5 0 14 0;
#X connect 7 0 15 0;
#X connect 8 0 11 0;
#X connect 8 1 12 0;
#X connect 9 0 10 0;
#X connect 10 0 19 0;
#X connect 14 0 63 0;
#X connect 15 0 16 0;
#X connect 16 0 18 0;
#X connect 17 0 14 1;
#X connect 18 0 17 0;
#X connect 19 0 15 1;
#X connect 19 0 90 1;
#X connect 19 0 102 1;
#X connect 21 0 22 0;
#X connect 22 0 20 0;
#X connect 23 0 26 0;
#X connect 24 0 23 1;
#X connect 25 0 23 0;
#X connect 26 0 30 0;
#X connect 26 0 38 0;
#X connect 27 0 32 0;
#X connect 28 0 27 0;
#X connect 29 0 28 1;
#X connect 30 0 28 0;
#X connect 32 0 33 0;
#X connect 33 0 31 0;
#X connect 34 0 42 0;
#X connect 35 0 34 0;
#X connect 36 0 35 2;
#X connect 36 0 98 0;
#X connect 37 0 96 0;
#X connect 37 2 36 0;
#X connect 38 0 8 0;
#X connect 41 0 35 1;
#X connect 42 0 25 0;
#X connect 42 1 38 1;
#X connect 43 0 96 0;
#X connect 44 0 35 0;
#X connect 45 0 65 0;
#X connect 47 0 65 0;
#X connect 48 0 65 0;
#X connect 49 0 65 0;
#X connect 53 0 65 0;
#X connect 54 0 65 0;
#X connect 55 0 65 0;
#X connect 56 0 65 0;
#X connect 61 0 62 0;
#X connect 62 0 45 0;
#X connect 62 0 47 0;
#X connect 62 0 48 0;
#X connect 62 0 49 0;
#X connect 62 0 53 0;
#X connect 62 0 54 0;
#X connect 62 0 55 0;
#X connect 62 0 56 0;
#X connect 63 0 45 0;
#X connect 63 1 47 0;
#X connect 63 2 48 0;
#X connect 63 3 49 0;
#X connect 63 4 53 0;
#X connect 63 5 54 0;
#X connect 63 6 55 0;
#X connect 63 7 56 0;
#X connect 64 0 62 0;
#X connect 65 0 37 0;
#X connect 66 0 94 0;
#X connect 66 1 72 0;
#X connect 66 2 73 0;
#X connect 71 0 78 0;
#X connect 71 0 82 0;
#X connect 72 0 95 0;
#X connect 73 0 90 0;
#X connect 74 0 81 0;
#X connect 74 1 83 0;
#X connect 74 2 84 0;
#X connect 74 3 85 0;
#X connect 74 4 86 0;
#X connect 74 5 87 0;
#X connect 74 6 88 0;
#X connect 74 7 89 0;
#X connect 76 0 77 0;
#X connect 77 0 80 0;
#X connect 78 0 79 0;
#X connect 79 0 74 0;
#X connect 80 0 79 0;
#X connect 81 0 45 0;
#X connect 82 0 81 0;
#X connect 82 0 83 0;
#X connect 82 0 84 0;
#X connect 82 0 85 0;
#X connect 82 0 86 0;
#X connect 82 0 87 0;
#X connect 82 0 88 0;
#X connect 82 0 89 0;
#X connect 83 0 47 0;
#X connect 84 0 48 0;
#X connect 85 0 49 0;
#X connect 86 0 53 0;
#X connect 87 0 54 0;
#X connect 88 0 55 0;
#X connect 89 0 56 0;
#X connect 90 0 91 0;
#X connect 91 0 93 0;
#X connect 92 0 94 1;
#X connect 92 0 95 1;
#X connect 93 0 92 0;
#X connect 94 0 71 0;
#X connect 95 0 75 0;
#X connect 96 0 44 0;
#X connect 101 0 102 0;
#X connect 102 0 103 0;
#X connect 103 0 105 0;
#X connect 104 0 109 1;
#X connect 105 0 104 0;
#X connect 106 0 107 0;
#X connect 106 1 101 0;
#X connect 107 0 109 0;
#X connect 108 0 19 0;
#X connect 109 0 110 0;
#X connect 109 0 113 0;
#X connect 111 0 41 0;
#X connect 111 0 112 0;
