#N canvas 827 239 527 327 12;
#X obj 68 565 outlet~;
#X obj 153 565 outlet~;
#X obj 68 498 tabplay~;
#X obj 153 498 tabplay~;
#X obj 116 19 inlet;
#X obj 205 299 readsf~ 2;
#X obj 239 28 symbol;
#X msg 196 206 1;
#X msg 239 88 open \$1;
#X obj 193 158 t b a;
#X connect 2 0 0 0;
#X connect 3 0 1 0;
#X connect 4 0 6 0;
#X connect 5 0 0 0;
#X connect 5 1 1 0;
#X connect 6 0 8 0;
#X connect 7 0 5 0;
#X connect 8 0 9 0;
#X connect 9 0 7 0;
#X connect 9 1 5 0;
